<?xml version="1.0" encoding="UTF-8"?>
<!DOCTYPE svg PUBLIC "-//W3C//DTD SVG 1.1//EN" "http://www.w3.org/Graphics/SVG/1.1/DTD/svg11.dtd">
<svg xmlns="http://www.w3.org/2000/svg" version="1.1" width="500px" height="500px" style="shape-rendering:geometricPrecision; text-rendering:geometricPrecision; image-rendering:optimizeQuality; fill-rule:evenodd; clip-rule:evenodd" xmlns:xlink="http://www.w3.org/1999/xlink">
<g><path style="opacity:0.991" fill="#151515" d="M 277.5,317.5 C 280.415,317.913 282.248,319.579 283,322.5C 285,329.5 285,336.5 283,343.5C 282.417,345.002 281.584,346.335 280.5,347.5C 276.668,348.696 273.001,350.03 269.5,351.5C 266.941,351.198 264.607,351.532 262.5,352.5C 253.827,352.666 245.16,352.5 236.5,352C 229.952,351.113 223.618,349.446 217.5,347C 213.702,337.936 213.536,328.769 217,319.5C 218.11,317.963 219.61,317.297 221.5,317.5C 221.842,318.338 222.508,318.672 223.5,318.5C 224.209,319.404 225.209,319.737 226.5,319.5C 228.713,321.312 231.047,321.645 233.5,320.5C 234.833,320.833 236.167,321.167 237.5,321.5C 237.5,321.833 237.5,322.167 237.5,322.5C 238.568,323.434 239.901,323.768 241.5,323.5C 246.833,323.5 252.167,323.5 257.5,323.5C 258.791,323.737 259.791,323.404 260.5,322.5C 261.557,321.794 261.224,321.461 259.5,321.5C 260.559,317.072 260.559,316.405 259.5,319.5C 253.167,319.5 246.833,319.5 240.5,319.5C 240.771,317.62 240.104,316.287 238.5,315.5C 238.817,311.298 238.483,307.298 237.5,303.5C 236.208,282.126 231.708,261.459 224,241.5C 215.443,225.168 208.443,208.168 203,190.5C 199.658,171.341 201.325,152.674 208,134.5C 219.488,105.856 233.321,78.5226 249.5,52.5C 270.15,84.4745 285.983,118.808 297,155.5C 299.103,173.014 297.103,190.014 291,206.5C 283.036,222.052 276.036,238.052 270,254.5C 264.551,271.434 261.884,288.767 262,306.5C 264.662,279.165 273.995,254.499 290,232.5C 304.461,216.284 322.627,208.284 344.5,208.5C 367.195,207.884 386.029,215.884 401,232.5C 416.366,262.343 413.366,290.343 392,316.5C 380.995,328.085 367.495,334.418 351.5,335.5C 354.002,329.489 356.835,323.489 360,317.5C 366.687,299.861 361.521,287.361 344.5,280C 311.87,274.522 289.537,287.022 277.5,317.5 Z M 277.5,317.5 C 276.22,318.931 274.553,319.598 272.5,319.5C 273.78,318.069 275.447,317.402 277.5,317.5 Z M 226.5,319.5 C 228.861,319.674 231.194,320.007 233.5,320.5C 231.047,321.645 228.713,321.312 226.5,319.5 Z M 272.5,319.5 C 270.473,321.088 268.139,321.588 265.5,321C 267.74,320.023 270.073,319.523 272.5,319.5 Z"/></g>
<g><path style="opacity:0.993" fill="#161616" d="M 236.5,307.5 C 237.272,311.452 237.605,315.452 237.5,319.5C 230.578,319.034 224.745,316.367 220,311.5C 219.601,311.728 219.435,312.062 219.5,312.5C 206.325,285.245 184.658,274.412 154.5,280C 145.257,282.745 139.257,288.578 136.5,297.5C 132.908,301.877 132.908,306.544 136.5,311.5C 136.204,315.653 137.204,319.653 139.5,323.5C 140.325,324.386 141.325,324.719 142.5,324.5C 144.652,327.973 146.319,331.64 147.5,335.5C 119.887,332.431 101.387,317.765 92,291.5C 84.584,270.813 86.584,251.147 98,232.5C 112.971,215.884 131.805,207.884 154.5,208.5C 178.966,208.365 198.466,218.032 213,237.5C 226.661,258.781 234.494,282.114 236.5,307.5 Z"/></g>
<g><path style="opacity:0.564" fill="#0d0d0d" d="M 136.5,297.5 C 135.706,307.207 137.706,316.207 142.5,324.5C 141.325,324.719 140.325,324.386 139.5,323.5C 137.204,319.653 136.204,315.653 136.5,311.5C 132.908,306.544 132.908,301.877 136.5,297.5 Z"/></g>
<g><path style="opacity:0.013" fill="#000000" d="M 237.5,303.5 C 238.483,307.298 238.817,311.298 238.5,315.5C 238.768,317.099 238.434,318.432 237.5,319.5C 237.605,315.452 237.272,311.452 236.5,307.5C 237.434,306.432 237.768,305.099 237.5,303.5 Z"/></g>
<g><path style="opacity:0.798" fill="#1c1c1c" d="M 237.5,319.5 C 238.434,318.432 238.768,317.099 238.5,315.5C 240.104,316.287 240.771,317.62 240.5,319.5C 246.833,319.5 253.167,319.5 259.5,319.5C 260.559,316.405 260.559,317.072 259.5,321.5C 259.167,321.5 258.833,321.5 258.5,321.5C 252.167,321.5 245.833,321.5 239.5,321.5C 238.833,321.5 238.167,321.5 237.5,321.5C 236.167,321.167 234.833,320.833 233.5,320.5C 231.194,320.007 228.861,319.674 226.5,319.5C 225.791,318.596 224.791,318.263 223.5,318.5C 223.158,317.662 222.492,317.328 221.5,317.5C 220.058,316.18 219.392,314.514 219.5,312.5C 219.435,312.062 219.601,311.728 220,311.5C 224.745,316.367 230.578,319.034 237.5,319.5 Z"/></g>
<g><path style="opacity:0.015" fill="#000000" d="M 239.5,321.5 C 245.833,321.5 252.167,321.5 258.5,321.5C 258.842,322.338 259.508,322.672 260.5,322.5C 259.791,323.404 258.791,323.737 257.5,323.5C 252.167,322.167 246.833,322.167 241.5,323.5C 239.901,323.768 238.568,323.434 237.5,322.5C 238.492,322.672 239.158,322.338 239.5,321.5 Z"/></g>
<g><path style="opacity:0.973" fill="#151515" d="M 262.5,352.5 C 265.059,352.802 267.393,352.468 269.5,351.5C 272.841,350.995 276.174,350.828 279.5,351C 286.502,362.051 293.668,362.218 301,351.5C 304.072,345.56 306.072,339.226 307,332.5C 308.333,331.167 309.667,331.167 311,332.5C 317.427,340.109 321.76,348.776 324,358.5C 326.124,376.719 318.291,388.219 300.5,393C 289.239,394.952 280.073,391.452 273,382.5C 266.289,373.454 262.789,363.454 262.5,352.5 Z"/></g>
<g><path style="opacity:0.971" fill="#151515" d="M 188.5,331.5 C 189.822,331.33 190.989,331.663 192,332.5C 192.734,340.034 195.067,347.034 199,353.5C 203.243,359.399 208.41,360.565 214.5,357C 217.021,354.78 219.188,352.28 221,349.5C 226.339,351.402 231.839,352.735 237.5,353.5C 235.894,366.505 230.56,377.671 221.5,387C 204.833,397.378 190.333,394.878 178,379.5C 173.728,370.005 173.394,360.338 177,350.5C 180.342,343.806 184.175,337.473 188.5,331.5 Z"/></g>
<g><path style="opacity:0.971" fill="#151515" d="M 239.5,353.5 C 246.135,353.82 252.635,354.153 259,354.5C 256.284,378.841 262.784,400.174 278.5,418.5C 272.382,422.776 266.382,427.276 260.5,432C 255.862,436.472 252.196,441.639 249.5,447.5C 246.581,442.66 243.414,437.994 240,433.5C 233.619,428.278 227.119,423.278 220.5,418.5C 236.465,399.821 242.798,378.154 239.5,353.5 Z"/></g>
</svg>
